<svg width="1360" height="191" viewBox="0 0 1360 191" fill="none" xmlns="http://www.w3.org/2000/svg">
<path d="M0 187.264V3.67185H94.9435C119.248 3.67185 139.967 7.6934 157.103 15.7365C174.238 23.6047 187.177 34.4455 195.919 48.2586C204.662 62.0717 209.033 77.8082 209.033 95.4681C209.033 113.128 204.662 128.864 195.919 142.678C187.177 156.491 174.238 167.419 157.103 175.462C139.967 183.33 119.248 187.264 94.9435 187.264H0ZM94.9435 141.628C113.303 141.628 127.466 137.432 137.432 129.039C147.399 120.472 152.382 109.281 152.382 95.4681C152.382 81.6549 147.399 70.552 137.432 62.1592C127.466 53.5915 113.303 49.3077 94.9435 49.3077H56.6514V141.628H94.9435Z" fill="white"/>
<path d="M425.426 3.67185V47.2095H296.387V74.7484H407.067V113.303H296.387V143.727H425.426V187.264H239.736V3.67185H425.426Z" fill="white"/>
<path d="M562.873 190.936C524.581 190.936 496.517 184.554 478.682 171.79C461.023 159.026 452.193 141.803 452.193 120.122V116.975H509.893V118.811C509.893 128.078 513.915 135.334 521.958 140.579C530.176 145.825 543.814 148.448 562.873 148.448C582.631 148.448 596.269 146.787 603.788 143.464C611.306 140.142 615.065 135.684 615.065 130.088C615.065 124.843 612.53 120.909 607.459 118.286C602.389 115.663 595.919 113.915 588.051 113.041C580.358 112.166 569.517 111.379 555.529 110.68C534.372 109.631 516.975 108.057 503.336 105.959C489.873 103.686 478.158 98.7902 468.191 91.2717C458.4 83.5783 453.504 72.213 453.504 57.1759C453.504 39.8658 461.897 26.0526 478.682 15.7365C495.643 5.2455 523.531 0 562.348 0C587.527 0 608.246 2.97245 624.507 8.91736C640.768 14.8623 652.658 22.9054 660.177 33.0467C667.695 43.1879 671.455 54.728 671.455 67.6669V70.0274H613.754V67.6669C613.754 60.4981 609.645 54.5532 601.427 49.8322C593.209 44.9364 580.183 42.4885 562.348 42.4885C542.94 42.4885 529.564 44.0622 522.22 47.2095C514.876 50.3568 511.205 54.5532 511.205 59.7987C511.205 63.9951 513.478 67.2298 518.024 69.5029C522.745 71.6011 528.602 72.9999 535.596 73.6993C542.765 74.2238 552.906 74.7484 566.02 75.2729C587.701 75.9723 605.711 77.4585 620.049 79.7316C634.386 81.8298 646.713 86.813 657.029 94.6813C667.52 102.55 672.766 114.352 672.766 130.088C672.766 148.273 664.023 162.96 646.538 174.151C629.228 185.341 601.34 190.936 562.873 190.936Z" fill="white"/>
<path d="M857.405 187.264H692.697V142.678H746.725V48.2586H692.697V3.67185H857.405V48.2586H803.377V142.678H857.405V187.264Z" fill="white"/>
<path d="M975.804 124.581V90.4849H1108.52V187.264H1059.47L1068.91 149.234H1064.19C1058.07 161.824 1048.28 171.965 1034.82 179.658C1021.35 187.177 1003.87 190.936 982.361 190.936C960.155 190.936 940.659 186.74 923.874 178.347C907.263 169.954 894.499 158.502 885.582 143.989C876.664 129.476 872.206 113.303 872.206 95.4681C872.206 77.2837 876.839 61.0226 886.106 46.685C895.373 32.1724 909.011 20.8072 927.021 12.5892C945.03 4.1964 966.712 0 992.065 0C1028.43 0 1056.58 7.16885 1076.52 21.5065C1096.45 35.6694 1108.86 54.4658 1113.76 77.8957H1057.11C1053.26 67.7544 1045.92 59.7113 1035.08 53.7664C1024.41 47.8215 1010.16 44.849 992.327 44.849C978.514 44.849 966.712 47.0346 956.92 51.4059C947.304 55.7771 940.047 61.8095 935.151 69.5029C930.256 77.0214 927.808 85.6765 927.808 95.4681C927.808 111.03 933.403 123.619 944.593 133.236C955.784 142.678 971.783 147.399 992.59 147.399C1007.98 147.399 1020.74 145.388 1030.88 141.366C1041.02 137.17 1048.54 131.575 1053.44 124.581H975.804Z" fill="white"/>
<path d="M1143.1 187.264V3.67185H1231.22L1308.86 153.431H1313.84C1311.22 145.737 1309.21 137.869 1307.81 129.826C1306.41 121.608 1305.71 111.729 1305.71 100.189V3.67185H1360V187.264H1272.14L1194.24 37.5053H1189.52C1192.14 45.5484 1194.15 53.5915 1195.55 61.6346C1196.95 69.6777 1197.65 79.3819 1197.65 90.7471V187.264H1143.1Z" fill="white"/>
</svg>
